<svg xmlns="http://www.w3.org/2000/svg" xmlns:xlink="http://www.w3.org/1999/xlink" contentStyleType="text/css" data-diagram-type="CLASS" height="268px" preserveAspectRatio="none" style="width:926px;height:268px;background:#FFFFFF;" version="1.1" viewBox="0 0 926 268" width="926px" zoomAndPan="magnify"><defs/><g><!--class Symbol--><g class="entity" data-entity="Symbol" data-source-line="7" data-uid="ent0002" id="entity_Symbol"><rect fill="#F1F1F1" height="96.8906" rx="2.5" ry="2.5" style="stroke:#181818;stroke-width:0.5;" width="138.6426" x="7" y="164.59"/><ellipse cx="43.7833" cy="180.59" fill="#ADD1B2" rx="11" ry="11" style="stroke:#181818;stroke-width:1;"/><path d="M46.752,186.2306 Q46.1739,186.5275 45.5333,186.6681 Q44.8926,186.8244 44.1895,186.8244 Q41.6895,186.8244 40.3614,185.1838 Q39.0489,183.5275 39.0489,180.4025 Q39.0489,177.2775 40.3614,175.6213 Q41.6895,173.965 44.1895,173.965 Q44.8926,173.965 45.5333,174.1213 Q46.1895,174.2775 46.752,174.5744 L46.752,177.2931 Q46.127,176.715 45.5333,176.4494 Q44.9395,176.1681 44.3145,176.1681 Q42.9708,176.1681 42.2833,177.2463 Q41.5958,178.3088 41.5958,180.4025 Q41.5958,182.4963 42.2833,183.5744 Q42.9708,184.6369 44.3145,184.6369 Q44.9395,184.6369 45.5333,184.3713 Q46.127,184.09 46.752,183.5119 L46.752,186.2306 Z " fill="#000000"/><text fill="#000000" font-family="sans-serif" font-size="14" font-weight="bold" lengthAdjust="spacing" textLength="58.2354" x="62.624" y="185.4367">Symbol</text><line style="stroke:#181818;stroke-width:0.5;" x1="8" x2="144.6426" y1="196.59" y2="196.59"/><text fill="#000000" font-family="sans-serif" font-size="14" lengthAdjust="spacing" textLength="93.7891" x="13" y="213.5851">+char *name</text><text fill="#000000" font-family="sans-serif" font-size="14" lengthAdjust="spacing" textLength="126.6426" x="13" y="229.882">+Position position</text><text fill="#000000" font-family="sans-serif" font-size="14" lengthAdjust="spacing" textLength="120.1689" x="13" y="246.1789">+SymbolBits bits</text><line style="stroke:#181818;stroke-width:0.5;" x1="8" x2="144.6426" y1="253.4806" y2="253.4806"/></g><!--class SymbolList--><g class="entity" data-entity="SymbolList" data-source-line="14" data-uid="ent0004" id="entity_SymbolList"><rect fill="#F1F1F1" height="48" rx="2.5" ry="2.5" style="stroke:#181818;stroke-width:0.5;" width="118.9805" x="16.83" y="23.29"/><ellipse cx="31.83" cy="39.29" fill="#ADD1B2" rx="11" ry="11" style="stroke:#181818;stroke-width:1;"/><path d="M34.7988,44.9306 Q34.2206,45.2275 33.58,45.3681 Q32.9394,45.5244 32.2363,45.5244 Q29.7363,45.5244 28.4081,43.8837 Q27.0956,42.2275 27.0956,39.1025 Q27.0956,35.9775 28.4081,34.3212 Q29.7363,32.665 32.2363,32.665 Q32.9394,32.665 33.58,32.8212 Q34.2363,32.9775 34.7988,33.2744 L34.7988,35.9931 Q34.1738,35.415 33.58,35.1494 Q32.9863,34.8681 32.3613,34.8681 Q31.0175,34.8681 30.33,35.9462 Q29.6425,37.0087 29.6425,39.1025 Q29.6425,41.1962 30.33,42.2744 Q31.0175,43.3369 32.3613,43.3369 Q32.9863,43.3369 33.58,43.0712 Q34.1738,42.79 34.7988,42.2119 L34.7988,44.9306 Z " fill="#000000"/><text fill="#000000" font-family="sans-serif" font-size="14" font-weight="bold" lengthAdjust="spacing" textLength="86.9805" x="45.83" y="44.1367">SymbolList</text><line style="stroke:#181818;stroke-width:0.5;" x1="17.83" x2="134.8105" y1="55.29" y2="55.29"/><line style="stroke:#181818;stroke-width:0.5;" x1="17.83" x2="134.8105" y1="63.29" y2="63.29"/></g><!--class ReferencesItem--><g class="entity" data-entity="ReferencesItem" data-source-line="19" data-uid="ent0007" id="entity_ReferencesItem"><rect fill="#F1F1F1" height="80.5938" rx="2.5" ry="2.5" style="stroke:#181818;stroke-width:0.5;" width="158.7471" x="449.95" y="7"/><ellipse cx="466.0337" cy="23" fill="#ADD1B2" rx="11" ry="11" style="stroke:#181818;stroke-width:1;"/><path d="M469.0024,28.6406 Q468.4243,28.9375 467.7837,29.0781 Q467.1431,29.2344 466.4399,29.2344 Q463.9399,29.2344 462.6118,27.5938 Q461.2993,25.9375 461.2993,22.8125 Q461.2993,19.6875 462.6118,18.0313 Q463.9399,16.375 466.4399,16.375 Q467.1431,16.375 467.7837,16.5313 Q468.4399,16.6875 469.0024,16.9844 L469.0024,19.7031 Q468.3774,19.125 467.7837,18.8594 Q467.1899,18.5781 466.5649,18.5781 Q465.2212,18.5781 464.5337,19.6563 Q463.8462,20.7188 463.8462,22.8125 Q463.8462,24.9063 464.5337,25.9844 Q465.2212,27.0469 466.5649,27.0469 Q467.1899,27.0469 467.7837,26.7813 Q468.3774,26.5 469.0024,25.9219 L469.0024,28.6406 Z " fill="#000000"/><text fill="#000000" font-family="sans-serif" font-size="14" font-weight="bold" lengthAdjust="spacing" textLength="124.3389" x="480.2745" y="27.8467">ReferencesItem</text><line style="stroke:#181818;stroke-width:0.5;" x1="450.95" x2="607.6971" y1="39" y2="39"/><text fill="#000000" font-family="sans-serif" font-size="14" lengthAdjust="spacing" textLength="93.7891" x="455.95" y="55.9951">+char *name</text><text fill="#000000" font-family="sans-serif" font-size="14" lengthAdjust="spacing" textLength="146.7471" x="455.95" y="72.292">+ReferencesBits bits</text><line style="stroke:#181818;stroke-width:0.5;" x1="450.95" x2="607.6971" y1="79.5938" y2="79.5938"/></g><!--class Reference--><g class="entity" data-entity="Reference" data-source-line="23" data-uid="ent0008" id="entity_Reference"><rect fill="#F1F1F1" height="80.5938" rx="2.5" ry="2.5" style="stroke:#181818;stroke-width:0.5;" width="138.6426" x="460" y="172.74"/><ellipse cx="486.9795" cy="188.74" fill="#ADD1B2" rx="11" ry="11" style="stroke:#181818;stroke-width:1;"/><path d="M489.9482,194.3806 Q489.3701,194.6775 488.7295,194.8181 Q488.0889,194.9744 487.3857,194.9744 Q484.8857,194.9744 483.5576,193.3337 Q482.2451,191.6775 482.2451,188.5525 Q482.2451,185.4275 483.5576,183.7712 Q484.8857,182.115 487.3857,182.115 Q488.0889,182.115 488.7295,182.2712 Q489.3857,182.4275 489.9482,182.7244 L489.9482,185.4431 Q489.3232,184.865 488.7295,184.5994 Q488.1357,184.3181 487.5107,184.3181 Q486.167,184.3181 485.4795,185.3962 Q484.792,186.4587 484.792,188.5525 Q484.792,190.6462 485.4795,191.7244 Q486.167,192.7869 487.5107,192.7869 Q488.1357,192.7869 488.7295,192.5212 Q489.3232,192.24 489.9482,191.6619 L489.9482,194.3806 Z " fill="#000000"/><text fill="#000000" font-family="sans-serif" font-size="14" font-weight="bold" lengthAdjust="spacing" textLength="80.0215" x="503.6416" y="193.5867">Reference</text><line style="stroke:#181818;stroke-width:0.5;" x1="461" x2="597.6426" y1="204.74" y2="204.74"/><text fill="#000000" font-family="sans-serif" font-size="14" lengthAdjust="spacing" textLength="102.0469" x="466" y="221.7351">+Usage usage</text><text fill="#000000" font-family="sans-serif" font-size="14" lengthAdjust="spacing" textLength="126.6426" x="466" y="238.032">+Position position</text><line style="stroke:#181818;stroke-width:0.5;" x1="461" x2="597.6426" y1="245.3337" y2="245.3337"/></g><g class="entity" data-entity="GMN12" data-source-line="33" data-uid="ent0013" id="entity_GMN12"><path d="M239.94,192.9 L239.94,209.03 L145.82,213.03 L239.94,217.03 L239.94,233.1656 A0,0 0 0 0 239.94,233.1656 L424.6968,233.1656 A0,0 0 0 0 424.6968,233.1656 L424.6968,202.9 L414.6968,192.9 L239.94,192.9 A0,0 0 0 0 239.94,192.9" fill="#FEFFDD" style="stroke:#181818;stroke-width:0.5;"/><path d="M414.6968,192.9 L414.6968,202.9 L424.6968,202.9 L414.6968,192.9" fill="#FEFFDD" style="stroke:#181818;stroke-width:0.5;"/><text fill="#000000" font-family="sans-serif" font-size="13" lengthAdjust="spacing" textLength="156.6855" x="245.94" y="209.9669">Symbol table entries for</text><text fill="#000000" font-family="sans-serif" font-size="13" lengthAdjust="spacing" textLength="163.7568" x="245.94" y="225.0997">identifiers during parsing</text></g><g class="entity" data-entity="GMN15" data-source-line="38" data-uid="ent0016" id="entity_GMN15"><path d="M702.85,27.16 L702.85,43.29 L609.18,47.29 L702.85,51.29 L702.85,67.4256 A0,0 0 0 0 702.85,67.4256 L919.8021,67.4256 A0,0 0 0 0 919.8021,67.4256 L919.8021,37.16 L909.8021,27.16 L702.85,27.16 A0,0 0 0 0 702.85,27.16" fill="#FEFFDD" style="stroke:#181818;stroke-width:0.5;"/><path d="M909.8021,27.16 L909.8021,37.16 L919.8021,37.16 L909.8021,27.16" fill="#FEFFDD" style="stroke:#181818;stroke-width:0.5;"/><text fill="#000000" font-family="sans-serif" font-size="13" lengthAdjust="spacing" textLength="195.9521" x="708.85" y="44.2269">Persistent reference database</text><text fill="#000000" font-family="sans-serif" font-size="13" lengthAdjust="spacing" textLength="111.2109" x="708.85" y="59.3597">stored in .cx files</text></g><!--reverse link Symbol to Symbol--><g class="link" data-entity-1="Symbol" data-entity-2="Symbol" data-source-line="12" data-uid="lnk3" id="link_Symbol_Symbol"><path codeLine="12" d="M158.0321,197.2451 C177.6021,197.9551 180.64,202.93 180.64,213.03 C180.64,223.14 165.61,228.55 146.04,229.26" fill="none" id="Symbol-backto-Symbol" style="stroke:#181818;stroke-width:1;"/><polygon fill="none" points="146.04,196.81,151.891,201.0249,158.0321,197.2451,152.1811,193.0302,146.04,196.81" style="stroke:#181818;stroke-width:1;"/><text fill="#000000" font-family="sans-serif" font-size="13" lengthAdjust="spacing" textLength="29.0278" x="186.64" y="217.5969">next</text></g><!--reverse link SymbolList to Symbol--><g class="link" data-entity-1="SymbolList" data-entity-2="Symbol" data-source-line="16" data-uid="lnk5" id="link_SymbolList_Symbol"><path codeLine="16" d="M76.32,83.75 C76.32,107.81 76.32,133.89 76.32,164.32" fill="none" id="SymbolList-backto-Symbol" style="stroke:#181818;stroke-width:1;"/><polygon fill="none" points="76.32,71.75,72.32,77.75,76.32,83.75,80.32,77.75,76.32,71.75" style="stroke:#181818;stroke-width:1;"/><text fill="#000000" font-family="sans-serif" font-size="13" lengthAdjust="spacing" textLength="46.9473" x="77.32" y="130.6569">symbol</text></g><!--reverse link SymbolList to SymbolList--><g class="link" data-entity-1="SymbolList" data-entity-2="SymbolList" data-source-line="17" data-uid="lnk6" id="link_SymbolList_SymbolList"><path codeLine="17" d="M148.2996,32.6135 C167.5496,32.7635 170.81,37.6 170.81,47.29 C170.81,56.99 155.55,61.91 136.3,62.06" fill="none" id="SymbolList-backto-SymbolList" style="stroke:#181818;stroke-width:1;"/><polygon fill="none" points="136.3,32.52,142.2686,36.5666,148.2996,32.6135,142.331,28.5669,136.3,32.52" style="stroke:#181818;stroke-width:1;"/><text fill="#000000" font-family="sans-serif" font-size="13" lengthAdjust="spacing" textLength="29.0278" x="176.81" y="51.8569">next</text></g><!--reverse link ReferencesItem to Reference--><g class="link" data-entity-1="ReferencesItem" data-entity-2="Reference" data-source-line="23" data-uid="lnk9" id="link_ReferencesItem_Reference"><path codeLine="23" d="M529.32,99.93 C529.32,125.58 529.32,146.85 529.32,172.48" fill="none" id="ReferencesItem-backto-Reference" style="stroke:#181818;stroke-width:1;"/><polygon fill="none" points="529.32,87.93,525.32,93.93,529.32,99.93,533.32,93.93,529.32,87.93" style="stroke:#181818;stroke-width:1;"/><text fill="#000000" font-family="sans-serif" font-size="13" lengthAdjust="spacing" textLength="69.418" x="530.32" y="130.6569">references</text></g><!--reverse link ReferencesItem to ReferencesItem--><g class="link" data-entity-1="ReferencesItem" data-entity-2="ReferencesItem" data-source-line="24" data-uid="lnk10" id="link_ReferencesItem_ReferencesItem"><path codeLine="24" d="M620.9442,33.3349 C640.8242,34.3549 643.69,38.6 643.69,47.29 C643.69,55.99 628.84,60.85 608.96,61.86" fill="none" id="ReferencesItem-backto-ReferencesItem" style="stroke:#181818;stroke-width:1;"/><polygon fill="none" points="608.96,32.72,614.7472,37.0222,620.9442,33.3349,615.1571,29.0327,608.96,32.72" style="stroke:#181818;stroke-width:1;"/><text fill="#000000" font-family="sans-serif" font-size="13" lengthAdjust="spacing" textLength="29.0278" x="649.69" y="51.8569">next</text></g><!--reverse link Reference to Reference--><g class="link" data-entity-1="Reference" data-entity-2="Reference" data-source-line="30" data-uid="lnk11" id="link_Reference_Reference"><path codeLine="30" d="M611.0321,197.2451 C630.6021,197.9551 633.64,202.93 633.64,213.03 C633.64,223.14 618.61,228.55 599.04,229.26" fill="none" id="Reference-backto-Reference" style="stroke:#181818;stroke-width:1;"/><polygon fill="none" points="599.04,196.81,604.891,201.0249,611.0321,197.2451,605.1811,193.0302,599.04,196.81" style="stroke:#181818;stroke-width:1;"/><text fill="#000000" font-family="sans-serif" font-size="13" lengthAdjust="spacing" textLength="29.0278" x="639.64" y="217.5969">next</text></g><!--SRC=[VLB1Ri8m3BtdAtn3sWHZLsxROH8I1pJ41wI92zRQ1CMk19lsxtFQGYbZkoIn_VBoykm9R4vr4IkmmSCxbfWmE0HlnG9BQfmq2TbCOCleWGBuwFZfUJxDY04mivetXZye76ooDRZACh-892eQmQMBOKEV2FDRo5iCif5JXQ0Yl35jygpfom0ykhrDy11iZJbQHoQX6E3G7tAoWx-IC1Iwc6_J4yJfzCorW8176J-m8XPzv0nlmz4LRW_tosquPhtunql1-fxy0N6jzkPUVcDenGBIfVmlialzeQWJisMxGsZoUj_CAos_P7Iy8Gf2ejrUlIXxAvIhjqnieQt4e7r7XZ8cBP7Nc4h2nE2RH647EW2ikq4TkanuIpl-atAizRBwhKI36-sG5fRpLrXYwkPpvevGKgLUNSX_0000]--></g></svg>